<svg width="367" height="120" viewBox="0 0 367 120" fill="none" xmlns="http://www.w3.org/2000/svg">
<path d="M347.368 57.1225L366.997 120C361.211 118.999 355.429 117.747 349.538 116.622L338.48 81.8746L327.116 113.75C321.538 112.625 316.059 112.247 310.481 111.373L330.423 56.3727L312.34 0H329.081L339.206 31.4969L350.055 0H366.997L347.368 57.1225ZM299.117 0H283.929V109C288.887 109.375 294.053 109.622 299.117 110.372V0ZM270.805 107.748C256.962 106.623 243.115 105.626 228.962 105.247V0H244.457V87.4984C253.345 87.7496 262.23 88.6231 270.805 89.1218V107.748ZM212.429 42.6244V61.3741H191.251V103.998H175.957V0H219.352V18.7496H191.251V42.6244H212.429ZM149.92 18.7496V105C144.754 105 139.485 105 134.422 105.247V18.7496H118.406V0H166.037V18.7496H149.92ZM101.668 62.3714C94.8506 62.3714 86.7901 62.3714 81.0043 62.75V90.6252C90.0968 89.8716 99.1892 88.998 108.384 88.6231V106.623L65.5063 110.751V0H108.384V18.7496H81.0043V43.9966C86.9978 43.9966 96.1925 43.6217 101.668 43.6217V62.3714ZM15.8079 51.8737V117.372C10.2297 118.125 5.26827 118.999 0 120V0H14.776L34.9225 68.1264V0H50.4205V112.247C44.9446 113.375 39.3664 113.75 33.4752 114.747L15.8079 51.8737Z" fill="#E50914"/>
</svg>
