<svg width="42" height="42" viewBox="0 0 42 42" fill="none" xmlns="http://www.w3.org/2000/svg">
<path d="M5.25663 1.50098L5.25615 1.50098C4.51089 1.50117 3.78267 1.72368 3.16457 2.14001C2.54647 2.55633 2.06661 3.14753 1.78626 3.83799C1.50591 4.52844 1.4378 5.28681 1.59061 6.01617C1.74263 6.74179 2.10647 7.40594 2.636 7.92461L15.7031 20.9952L2.63916 34.0626C2.28546 34.4054 2.0028 34.8146 1.80738 35.2669C1.60969 35.7244 1.50526 36.2168 1.50019 36.7151C1.49512 37.2135 1.58952 37.7079 1.77786 38.1693C1.9662 38.6307 2.2447 39.05 2.59708 39.4024C2.94945 39.7549 3.36862 40.0335 3.83006 40.222C4.29149 40.4104 4.78588 40.5049 5.28427 40.4998C5.78266 40.4947 6.27503 40.3902 6.73253 40.1924C7.18474 39.9969 7.59388 39.7142 7.93658 39.3604L21 26.2935L34.0633 39.3603C34.406 39.7141 34.8152 39.9969 35.2674 40.1924C35.7249 40.3902 36.2173 40.4947 36.7157 40.4998C37.2141 40.5049 37.7085 40.4104 38.1699 40.222C38.6314 40.0336 39.0505 39.7549 39.4029 39.4025C39.7553 39.05 40.0338 38.6307 40.2221 38.1693C40.4105 37.7079 40.5049 37.2135 40.4998 36.7151C40.4947 36.2167 40.3903 35.7244 40.1926 35.2669C39.9972 34.8146 39.7145 34.4054 39.3608 34.0626L26.2969 20.9952L39.3637 7.92489C39.9003 7.39983 40.2668 6.7256 40.4156 5.98962C40.5653 5.24972 40.488 4.48185 40.1938 3.78662C39.8997 3.09139 39.4024 2.5012 38.7671 2.09343C38.1317 1.68566 37.388 1.47937 36.6334 1.50163L36.633 1.50164C35.6637 1.53053 34.7437 1.93414 34.0661 2.62723L21 15.6968L7.9336 2.62695C7.58621 2.27196 7.17166 1.98956 6.71405 1.79624C6.25285 1.60141 5.75729 1.50101 5.25663 1.50098Z" fill="#EB3223" stroke="black" stroke-width="3"/>
</svg>
