<svg width="200" height="60" viewBox="0 0 200 60" fill="none" xmlns="http://www.w3.org/2000/svg">
<path d="M189.303 28.5613L200 60C196.847 59.4995 193.696 58.8734 190.485 58.311L184.459 40.9373L178.266 56.8751C175.227 56.3127 172.241 56.1233 169.201 55.6866L180.068 28.1863L170.214 0H179.337L184.855 15.7484L190.767 0H200L189.303 28.5613ZM163.008 0H154.731V54.5C157.433 54.6874 160.248 54.8111 163.008 55.1861V0ZM147.579 53.8738C140.035 53.3115 132.489 52.8128 124.776 52.6235V0H133.22V43.7492C138.064 43.8748 142.906 44.3116 147.579 44.5609V53.8738ZM115.766 21.3122V30.687H104.225V51.9992H95.8902V0H119.539V9.37482H104.225V21.3122H115.766ZM81.7007 9.37482V52.4998C78.8854 52.4998 76.0144 52.4998 73.2548 52.6235V9.37482H64.5269V0H90.4843V9.37482H81.7007ZM55.4055 31.1857C51.6901 31.1857 47.2974 31.1857 44.1444 31.375V45.3126C49.0994 44.9358 54.0545 44.499 59.0652 44.3116V53.3115L35.6985 55.3754V0H59.0652V9.37482H44.1444V21.9983C47.4106 21.9983 52.4214 21.8109 55.4055 21.8109V31.1857ZM8.61474 25.9368V58.6859C5.57484 59.0627 2.87102 59.4995 0 60V0H8.05235L19.0315 34.0632V0H27.4773V56.1233C24.4931 56.6876 21.4532 56.8751 18.2428 57.3737L8.61474 25.9368Z" fill="#E50914"/>
</svg>
