<svg width="51" height="50" viewBox="0 0 51 50" fill="none" xmlns="http://www.w3.org/2000/svg">
<path d="M3.57211 14.2368H31.5587V8.13574H3.57211C2.03838 8.13574 0.794922 9.50156 0.794922 11.1862C0.794922 12.8709 2.03838 14.2368 3.57211 14.2368Z" fill="white"/>
<path d="M3.57211 26.478H31.5587V20.377H3.57211C2.03838 20.377 0.794922 21.7428 0.794922 23.4275C0.794922 25.1123 2.03838 26.478 3.57211 26.478Z" fill="white"/>
<path d="M3.57211 32.6191V32.6193C2.03838 32.6193 0.794922 33.985 0.794922 35.6697C0.794922 37.3545 2.03838 38.7202 3.57211 38.7202H23.0151C22.7955 37.9772 22.6795 37.1936 22.6795 36.3898C22.6795 35.0436 23.0009 33.7524 23.6011 32.6191H3.57211Z" fill="white"/>
<path d="M49.7663 33.6621C48.3948 32.1556 46.171 32.1556 44.7994 33.6621L41.9158 36.8296V3.85763C41.9158 1.72702 40.3433 0 38.4036 0C36.4639 0 34.8915 1.72714 34.8915 3.85763V36.8296L32.0078 33.6621C30.6362 32.1557 28.4125 32.1556 27.0409 33.6621C25.6693 35.1687 25.6693 37.6112 27.0409 39.1178L35.9196 48.87C37.2885 50.3741 39.515 50.3792 40.8876 48.87L49.7663 39.1178C51.1378 37.6112 51.1379 35.1687 49.7663 33.6621Z" fill="white"/>
</svg>
