<svg width="82" height="82" viewBox="0 0 82 82" fill="none" xmlns="http://www.w3.org/2000/svg">
<path d="M28.7001 0C12.898 0 0 12.898 0 28.7001C0 44.5022 12.898 57.4002 28.7001 57.4002C35.8669 57.4002 42.4147 54.7271 47.4544 50.3533L49.2002 52.099V57.4002L72.1026 80.3026C74.3658 82.5658 78.0394 82.5658 80.3026 80.3026C82.5658 78.0394 82.5658 74.3658 80.3026 72.1026L57.4002 49.2002H52.099L50.3533 47.4544C54.7271 42.4147 57.4002 35.8669 57.4002 28.7001C57.4002 12.898 44.5022 0 28.7001 0ZM28.7001 8.20003C40.0705 8.20003 49.2002 17.3297 49.2002 28.7001C49.2002 40.0705 40.0705 49.2002 28.7001 49.2002C17.3297 49.2002 8.20003 40.0705 8.20003 28.7001C8.20003 17.3297 17.3297 8.20003 28.7001 8.20003Z" fill="white"/>
</svg>
