<?xml version="1.0" encoding="utf-8"?>

<!DOCTYPE svg PUBLIC "-//W3C//DTD SVG 1.0//EN" "http://www.w3.org/TR/2001/REC-SVG-20010904/DTD/svg10.dtd">
<!-- Uploaded to: SVG Repo, www.svgrepo.com, Generator: SVG Repo Mixer Tools -->
<svg version="1.0" id="Layer_1" xmlns="http://www.w3.org/2000/svg" xmlns:xlink="http://www.w3.org/1999/xlink" 
	 width="800px" height="800px" viewBox="0 0 64 64" enable-background="new 0 0 64 64" xml:space="preserve">
<g>
	<path fill-rule="evenodd" clip-rule="evenodd" fill="#394240" d="M60,0H4C1.789,0,0,1.789,0,4v40c0,2.211,1.789,4,4,4h8v12
		c0,1.617,0.973,3.078,2.469,3.695C14.965,63.902,15.484,64,16,64c1.039,0,2.062-0.406,2.828-1.172L33.656,48H60
		c2.211,0,4-1.789,4-4V4C64,1.789,62.211,0,60,0z M56,40H32c-1.023,0-2.047,0.391-2.828,1.172L20,50.344V44c0-2.211-1.789-4-4-4H8V8
		h48V40z"/>
	<path fill-rule="evenodd" clip-rule="evenodd" fill="#F9EBB2" d="M56,40H32c-1.023,0-2.047,0.391-2.828,1.172L20,50.344V44
		c0-2.211-1.789-4-4-4H8V8h48V40z"/>
</g>
</svg>